#Comment line ignore any data following # character 
#Hierarchical Translation and Rotation (.htr) file 
[Header]	
#Header keywords are followed by a single value 
FileType HTR		#Single word string
DataType HTRS		#Translation followed by rotation and scale data
FileVersion 1		#integer
NumSegments 25		#integer
NumFrames 6		#integer
DataFrameRate 30		#integer, data frame rate in this file
EulerRotationOrder ZYX
CalibrationUnits mm
RotationUnits Degrees
GlobalAxisofGravity Y
BoneLengthAxis Y
ScaleFactor 1.00
[SegmentNames&Hierarchy]
#CHILD	PARENT
BN_Tick_Root GLOBAL
BN_Torso BN_Tick_Root
BN_L_Leg_Front01 BN_Torso
BN_L_Leg_Rear01 BN_Torso
BN_MetalTop BN_Torso
BN_Neck BN_Torso
BN_R_Leg_Front01 BN_Torso
BN_R_Leg_Rear01 BN_Torso
BN_Sack BN_Torso
BN_L_Leg_Front02 BN_L_Leg_Front01
BN_L_Leg_Front03 BN_L_Leg_Front02
BN_L_Leg_Rear02 BN_L_Leg_Rear01
BN_L_Leg_Rear03 BN_L_Leg_Rear02
BN_Head BN_Neck
BN_Needle BN_Head
BN_R_Leg_Front02 BN_R_Leg_Front01
BN_R_Leg_Front03 BN_R_Leg_Front02
BN_R_Leg_Rear02 BN_R_Leg_Rear01
BN_R_Leg_Rear03 BN_R_Leg_Rear02
BN_SackDef01 BN_Sack
BN_SackDef02 BN_Sack
BN_SackDef03 BN_Sack
BN_SackDef04 BN_Sack
BN_SackDef05 BN_Sack
BN_SackDef06 BN_Sack
[BasePosition]
#SegmentName Tx, Ty, Tz, Rx, Ry, Rz, BoneLength
BN_Tick_Root 0.000000 0.000000 0.000000 -90.000000 0.000000 0.000000 10.000000 
BN_Torso 0.000000 0.000000 0.000000 0.000000 0.000000 0.000000 10.000000 
BN_L_Leg_Front01 0.000000 0.000000 0.000000 0.000000 0.000000 0.000000 10.000000 
BN_L_Leg_Rear01 0.000000 0.000000 0.000000 0.000000 0.000000 0.000000 10.000000 
BN_MetalTop 0.000000 0.000000 0.000000 0.000000 0.000000 0.000000 10.000000 
BN_Neck 0.000000 0.000000 0.000000 0.000000 0.000000 0.000000 10.000000 
BN_R_Leg_Front01 0.000000 0.000000 0.000000 0.000000 0.000000 0.000000 10.000000 
BN_R_Leg_Rear01 0.000000 0.000000 0.000000 0.000000 0.000000 0.000000 10.000000 
BN_Sack 0.000000 0.000000 0.000000 0.000000 0.000000 0.000000 10.000000 
BN_L_Leg_Front02 0.000000 0.000000 0.000000 0.000000 0.000000 0.000000 10.000000 
BN_L_Leg_Front03 0.000000 0.000000 0.000000 0.000000 0.000000 0.000000 10.000000 
BN_L_Leg_Rear02 0.000000 0.000000 0.000000 0.000000 0.000000 0.000000 10.000000 
BN_L_Leg_Rear03 0.000000 0.000000 0.000000 0.000000 0.000000 0.000000 10.000000 
BN_Head 0.000000 0.000000 0.000000 0.000000 0.000000 0.000000 10.000000 
BN_Needle 0.000000 0.000000 0.000000 0.000000 0.000000 0.000000 10.000000 
BN_R_Leg_Front02 0.000000 0.000000 0.000000 0.000000 0.000000 0.000000 10.000000 
BN_R_Leg_Front03 0.000000 0.000000 0.000000 0.000000 0.000000 0.000000 10.000000 
BN_R_Leg_Rear02 0.000000 0.000000 0.000000 0.000000 0.000000 0.000000 10.000000 
BN_R_Leg_Rear03 0.000000 0.000000 0.000000 0.000000 0.000000 0.000000 10.000000 
BN_SackDef01 0.000000 0.000000 0.000000 0.000000 0.000000 0.000000 10.000000 
BN_SackDef02 0.000000 0.000000 0.000000 0.000000 0.000000 0.000000 10.000000 
BN_SackDef03 0.000000 0.000000 0.000000 0.000000 0.000000 0.000000 10.000000 
BN_SackDef04 0.000000 0.000000 0.000000 0.000000 0.000000 0.000000 10.000000 
BN_SackDef05 0.000000 0.000000 0.000000 0.000000 0.000000 0.000000 10.000000 
BN_SackDef06 0.000000 0.000000 0.000000 0.000000 0.000000 0.000000 10.000000 
#Beginning of Data. Separated by tabs
#Fr	Tx	Ty	Tz	Rx	Ry	Rz	SF
[BN_Tick_Root]
126 -2590.690918 857.159790 -0.000030 0.000000 -0.000000 42.401596 2728.809570
127 -2597.456787 868.151917 -0.000030 0.000000 -0.000000 38.973763 2738.698486
128 -2602.838135 879.144104 -0.000030 0.000000 -0.000000 35.539688 2747.300537
129 -2606.959717 889.519653 -0.000030 0.000000 -0.000000 32.105675 2754.538818
130 -2609.948242 898.662354 -0.000030 0.000000 -0.000000 28.677811 2760.330322
131 -2611.927246 905.955933 -0.000030 0.000000 -0.000000 25.262196 2764.583252
[BN_Torso]
126 37.463837 40.771988 148.652908 178.316956 -8.909216 61.779972 158.630325
127 22.466230 38.233326 157.456192 177.406677 -8.934941 65.209236 163.581696
128 7.469433 35.693764 166.258072 176.496628 -8.906828 68.638542 170.210403
129 5.051724 23.995182 157.454605 177.407532 -8.881207 72.071053 159.352570
130 3.661197 13.804011 148.652084 178.318268 -8.909514 75.503586 149.336533
131 1.509797 6.557382 148.652084 178.319061 -8.907225 78.915840 148.804306
[BN_L_Leg_Front01]
126 -68.477791 10.734189 -26.804373 13.405561 84.032280 -114.148155 74.316254
127 -68.477791 10.734189 -26.804373 -21.184145 83.310768 -153.543320 74.316254
128 -68.477791 10.734189 -26.804373 -41.447659 81.410500 -178.486115 74.316254
129 -68.477791 10.734189 -26.804373 -24.854025 83.438095 -161.010315 74.316254
130 -68.477791 10.734189 -26.804373 3.136257 84.585533 -131.993210 74.316254
131 -68.477791 10.734189 -26.804373 19.110750 85.036552 -115.791840 74.316254
[BN_L_Leg_Rear01]
126 -72.133743 -73.994843 -18.268616 82.369225 82.019890 -83.250801 104.939293
127 -72.133743 -73.994843 -18.268616 78.797127 83.128563 -92.835770 104.939293
128 -72.133743 -73.994843 -18.268616 69.250816 83.069298 -110.264778 104.939293
129 -72.133743 -73.994843 -18.268616 68.921768 79.075981 -114.636734 104.939293
130 -72.133743 -73.994843 -18.268616 69.369118 76.367203 -117.502052 104.939293
131 -72.133743 -73.994843 -18.268616 67.920532 75.285362 -122.502174 104.939293
[BN_MetalTop]
126 0.000008 13.737477 26.403606 89.999443 -19.972164 -89.998039 29.763546
127 0.000008 13.737477 26.403606 89.996872 -15.499273 -89.999817 29.763546
128 0.000008 13.737477 26.403606 90.002907 -13.624883 -89.999916 29.763546
129 0.000008 13.737477 26.403606 90.002983 -13.724923 -90.000763 29.763546
130 0.000008 13.737477 26.403606 90.003082 -13.824987 -90.001633 29.763546
131 0.000008 13.737477 26.403606 90.001892 -14.139785 -90.001892 29.763546
[BN_Neck]
126 0.000014 95.233284 10.002091 -89.996170 -23.291290 89.998985 95.757088
127 0.000014 95.233284 10.002091 -89.998024 -24.093397 90.000824 95.757088
128 0.000014 95.233284 10.002091 -89.998123 -26.210627 89.996773 95.757088
129 0.000014 95.233284 10.002091 -89.996643 -29.197783 89.999367 95.757088
130 0.000014 95.233284 10.002091 -89.996307 -32.622707 89.998985 95.757088
131 0.000014 95.233284 10.002091 -89.995918 -36.047585 89.998558 95.757088
[BN_R_Leg_Front01]
126 68.477768 10.734107 -26.804314 43.124741 69.603783 89.206070 74.316193
127 68.477768 10.734107 -26.804314 43.587330 66.196304 90.376793 74.316193
128 68.477768 10.734107 -26.804314 44.250572 62.080902 91.808983 74.316193
129 68.477768 10.734107 -26.804314 42.195641 63.420330 90.381599 74.316193
130 68.477768 10.734107 -26.804314 38.347347 66.161797 86.792458 74.316193
131 68.477768 10.734107 -26.804314 33.577190 68.032242 82.043533 74.316193
[BN_R_Leg_Rear01]
126 72.133751 -73.994873 -18.268644 -44.850624 70.713356 18.795500 104.939331
127 72.133751 -73.994873 -18.268644 -43.880791 69.354454 19.830236 104.939331
128 72.133751 -73.994873 -18.268644 -42.679554 68.156395 20.722092 104.939331
129 72.133751 -73.994873 -18.268644 -41.670528 69.038460 13.048808 104.939331
130 72.133751 -73.994873 -18.268644 -39.836842 70.381996 5.853938 104.939331
131 72.133751 -73.994873 -18.268644 -36.681244 70.892998 0.486188 104.939331
[BN_Sack]
126 -0.000000 -78.024918 33.657791 90.000420 -4.868048 -89.998863 84.974907
127 -0.000000 -78.024918 33.657791 89.999672 0.271742 -90.001938 84.974907
128 -0.000000 -78.024918 33.657791 89.999504 1.009303 -89.998886 84.974907
129 -0.000000 -78.024918 33.657791 89.998985 -0.483916 -90.002289 84.974907
130 -0.000000 -78.024918 33.657791 90.003448 -3.315877 -90.000221 84.974907
131 -0.000000 -78.024918 33.657791 90.003860 -6.585369 -90.002319 84.974907
[BN_L_Leg_Front02]
126 142.805023 -0.000015 -0.000104 0.595763 1.928649 -104.154297 142.805023
127 142.805023 -0.000015 -0.000104 0.014030 -0.435694 -118.713036 142.805023
128 142.805023 -0.000015 -0.000104 0.138729 -1.326102 -127.707794 142.805023
129 142.805023 -0.000015 -0.000104 0.055790 -0.990488 -123.767853 142.805023
130 142.805023 -0.000015 -0.000104 0.037869 -0.122627 -118.044601 142.805023
131 142.805023 -0.000015 -0.000104 0.161300 1.006599 -115.712875 142.805023
[BN_L_Leg_Front03]
126 124.143021 -0.000045 0.000007 0.353267 -0.414670 113.052650 124.143021
127 124.143021 -0.000045 0.000007 0.354246 -0.360925 126.761497 124.143021
128 124.143021 -0.000045 0.000007 0.354523 -0.324001 133.933289 124.143021
129 124.143021 -0.000045 0.000007 0.353159 -0.340754 130.911636 124.143021
130 124.143021 -0.000045 0.000007 0.351629 -0.361398 126.190247 124.143021
131 124.143021 -0.000045 0.000007 0.356195 -0.372840 124.156639 124.143021
[BN_L_Leg_Rear02]
126 139.939041 0.000075 -0.000022 -14.510720 33.646545 89.586945 139.939041
127 139.939041 0.000075 -0.000022 -4.539291 26.537771 106.894287 139.939041
128 139.939041 0.000075 -0.000022 2.039636 17.954138 127.830978 139.939041
129 139.939041 0.000075 -0.000022 2.910868 11.563489 138.088150 139.939041
130 139.939041 0.000075 -0.000022 2.676913 9.327780 140.629623 139.939041
131 139.939041 0.000075 -0.000022 2.812628 9.600819 141.059830 139.939041
[BN_L_Leg_Rear03]
126 142.839615 0.000179 -0.000060 0.000459 -0.002302 -112.536308 142.839615
127 142.839615 0.000179 -0.000060 0.000749 -0.002225 -127.209656 142.839615
128 142.839615 0.000179 -0.000060 0.001045 -0.002102 -142.866440 142.839615
129 142.839615 0.000179 -0.000060 0.001158 -0.002042 -149.129700 142.839615
130 142.839615 0.000179 -0.000060 0.001183 -0.002027 -150.543304 142.839615
131 142.839615 0.000179 -0.000060 0.001187 -0.002025 -150.763046 142.839615
[BN_Head]
126 57.062447 -0.000030 0.000000 0.002144 0.000955 42.004967 57.062447
127 57.062447 -0.000030 0.000000 0.002138 0.000970 41.205994 57.062447
128 57.062447 -0.000030 0.000000 0.002119 0.001009 39.089085 57.062447
129 57.062447 -0.000030 0.000000 0.002092 0.001064 36.100643 57.062447
130 57.062447 -0.000030 0.000000 0.002061 0.001126 32.675438 57.062447
131 57.062447 -0.000030 0.000000 0.002025 0.001187 29.250257 57.062447
[BN_Needle]
126 33.915195 69.677551 -0.000027 0.000003 0.000030 87.896805 77.493240
127 33.915195 69.677551 -0.000027 0.000003 0.000030 87.896805 77.493240
128 33.915195 69.677551 -0.000026 0.000003 0.000030 87.896805 77.493240
129 33.915195 69.677551 -0.000025 0.000003 0.000030 87.896805 77.493240
130 33.915195 69.677551 -0.000024 0.000003 0.000030 87.896805 77.493240
131 33.915195 69.677544 -0.000024 0.000003 0.000030 87.896805 77.493233
[BN_R_Leg_Front02]
126 142.804947 -0.000060 0.000060 -19.828651 -0.414688 24.542305 142.804947
127 142.804947 -0.000060 0.000060 -11.871319 6.486193 54.347782 142.804947
128 142.804947 -0.000060 0.000060 -5.878530 5.811952 71.602585 142.804947
129 142.804947 -0.000060 0.000060 -2.924506 4.201565 83.235695 142.804947
130 142.804947 -0.000060 0.000060 -1.977458 3.513240 89.449471 142.804947
131 142.804947 -0.000060 0.000060 -1.811662 3.711425 93.217392 142.804947
[BN_R_Leg_Front03]
126 124.143005 -0.000060 -0.000156 -0.354442 0.002159 0.165827 124.143005
127 124.143005 -0.000060 -0.000156 -0.355372 -0.338239 -48.720032 124.143005
128 124.143005 -0.000060 -0.000156 -0.355826 -0.430051 -73.460854 124.143005
129 124.143005 -0.000060 -0.000156 -0.354343 -0.448670 -88.824692 124.143005
130 124.143005 -0.000060 -0.000156 -0.353022 -0.442854 -96.536331 124.143005
131 124.143005 -0.000060 -0.000156 -0.354446 -0.440652 -101.037888 124.143005
[BN_R_Leg_Rear02]
126 139.939011 -0.000149 0.000015 7.645388 27.457455 -99.568329 139.939011
127 139.939011 -0.000149 0.000015 0.176930 20.942900 -118.695122 139.939011
128 139.939011 -0.000149 0.000015 -4.276421 15.233926 -140.230316 139.939011
129 139.939011 -0.000149 0.000015 -4.021441 12.319849 -143.503937 139.939011
130 139.939011 -0.000149 0.000015 -2.895456 11.759985 -137.676407 139.939011
131 139.939011 -0.000149 0.000015 -2.635592 11.825544 -135.980469 139.939011
[BN_R_Leg_Rear03]
126 142.839417 0.000075 0.000119 0.002263 -0.000622 120.723366 142.839417
127 142.839417 0.000075 0.000119 0.002157 -0.000927 136.498260 142.839417
128 142.839417 0.000075 0.000119 0.002031 -0.001176 150.146072 142.839417
129 142.839417 0.000075 0.000119 0.002013 -0.001207 151.913040 142.839417
130 142.839417 0.000075 0.000119 0.002044 -0.001154 148.900223 142.839417
131 142.839417 0.000075 0.000119 0.002053 -0.001137 147.949341 142.839417
[BN_SackDef01]
126 249.782272 -3.760844 42.949425 -128.408218 -44.374973 -11.740845 253.475800
127 249.782272 -3.760844 42.949425 -128.408218 -44.374973 -11.740845 253.475800
128 249.782272 -3.760844 42.949425 -128.408218 -44.374973 -11.740845 253.475800
129 249.782272 -3.760844 42.949425 -128.408218 -44.374973 -11.740845 253.475800
130 249.782272 -3.760844 42.949425 -128.408218 -44.374973 -11.740845 253.475800
131 249.782272 -3.760844 42.949425 -128.408218 -44.374973 -11.740845 253.475800
[BN_SackDef02]
126 138.789795 -62.131748 45.674385 32.077126 -27.375721 -88.781525 158.773758
127 138.789795 -62.131748 45.674385 32.077126 -27.375721 -88.781525 158.773758
128 138.789795 -62.131748 45.674385 32.077126 -27.375721 -88.781525 158.773758
129 138.789795 -62.131748 45.674385 32.077126 -27.375721 -88.781525 158.773758
130 138.789795 -62.131748 45.674385 32.077126 -27.375721 -88.781525 158.773758
131 138.789795 -62.131748 45.674385 32.077126 -27.375721 -88.781525 158.773758
[BN_SackDef03]
126 249.782272 -3.760785 -42.949661 18.144459 44.375008 -11.740894 253.475845
127 249.782272 -3.760785 -42.949661 18.144459 44.375008 -11.740894 253.475845
128 249.782272 -3.760785 -42.949661 18.144459 44.375008 -11.740894 253.475845
129 249.782272 -3.760785 -42.949661 18.144459 44.375008 -11.740894 253.475845
130 249.782272 -3.760785 -42.949661 18.144459 44.375008 -11.740894 253.475845
131 249.782272 -3.760785 -42.949661 18.144459 44.375008 -11.740894 253.475845
[BN_SackDef04]
126 138.789780 -62.131645 -45.674473 146.059982 27.375723 -88.781555 158.773743
127 138.789780 -62.131645 -45.674473 146.059982 27.375723 -88.781555 158.773743
128 138.789780 -62.131645 -45.674473 146.059982 27.375723 -88.781555 158.773743
129 138.789780 -62.131645 -45.674473 146.059982 27.375723 -88.781555 158.773743
130 138.789780 -62.131645 -45.674473 146.059982 27.375723 -88.781555 158.773743
131 138.789780 -62.131645 -45.674473 146.059982 27.375723 -88.781555 158.773743
[BN_SackDef05]
126 118.790161 46.167137 -63.831196 0.155741 51.314110 90.605110 142.537460
127 118.790161 46.167137 -63.831196 0.155741 51.314110 90.605110 142.537460
128 118.790161 46.167137 -63.831196 0.155741 51.314110 90.605110 142.537460
129 118.790161 46.167137 -63.831196 0.155741 51.314110 90.605110 142.537460
130 118.790161 46.167137 -63.831196 0.155741 51.314110 90.605110 142.537460
131 118.790161 46.167137 -63.831196 0.155741 51.314110 90.605110 142.537460
[BN_SackDef06]
126 118.790207 46.167194 63.831219 152.058487 -51.314072 90.605019 142.537537
127 118.790207 46.167194 63.831219 152.058487 -51.314072 90.605019 142.537537
128 118.790207 46.167194 63.831219 152.058487 -51.314072 90.605019 142.537537
129 118.790207 46.167194 63.831219 152.058487 -51.314072 90.605019 142.537537
130 118.790207 46.167194 63.831219 152.058487 -51.314072 90.605019 142.537537
131 118.790207 46.167194 63.831219 152.058487 -51.314072 90.605019 142.537537
